<?xml version="1.0" encoding="UTF-8"?>
<svg id="assistant_icon" viewBox="0 0 36 33" xmlns="http://www.w3.org/2000/svg">
    <g fill="none" fill-rule="evenodd" transform="translate(.64 .919998)">
        <path d="m32.6136364 11.2c1.3172727 0 2.3863636-1.0752 2.3863636-2.4s-1.0690909-2.4-2.3863636-2.4c-1.3172728 0-2.3863637 1.0752-2.3863637 2.4s1.0690909 2.4 2.3863637 2.4" fill="#34a853"></path>
        <path d="m25.4545455 19.2c2.6361363 0 4.7727272-2.1488 4.7727272-4.8s-2.1365909-4.8-4.7727272-4.8c-2.6361364 0-4.7727273 2.1488-4.7727273 4.8s2.1365909 4.8 4.7727273 4.8" fill="#ea4335"></path>
        <path d="m25.4545455 32c3.0752272 0 5.5681818-2.5072 5.5681818-5.6s-2.4929546-5.6-5.5681818-5.6c-3.0752273 0-5.5681819 2.5072-5.5681819 5.6s2.4929546 5.6 5.5681819 5.6" fill="#fbbc04"></path>
        <path d="m19.0909091 9.6c0-5.3008-4.2731818-9.6-9.54545455-9.6-5.27227273 0-9.54545455 4.2992-9.54545455 9.6s4.27318182 9.6 9.54545455 9.6c5.27227275 0 9.54545455-4.2992 9.54545455-9.6z" fill="#4285f4"></path>
    </g>
</svg>